<svg width="78" height="78" viewBox="0 0 78 78" fill="none" xmlns="http://www.w3.org/2000/svg">
<g clip-path="url(#clip0)">
<path d="M12.0755 4.29634L3 60.26L3.07023 60.2054L30.5533 33.7045L14.9671 3.82996C14.2798 2.51429 12.3128 2.83175 12.0755 4.29634Z" fill="#1EC6C0"/>
<path d="M27.9291 13.5306L3 60.2731L37.2269 27.2694L30.3739 13.5633C29.8748 12.5635 28.4544 12.5455 27.9291 13.5306Z" fill="#1EC6C0"/>
<path d="M23.9352 21.0193L3.01192 60.2508L3.07016 60.2055L30.5533 33.7045L23.9352 21.0193Z" fill="#1AADA8"/>
<path fill-rule="evenodd" clip-rule="evenodd" d="M46.6366 18.196L3 60.2731L27.61 74.5803C28.6066 75.1399 29.8224 75.1399 30.819 74.5803L38.826 69.9133C35.2093 65.9928 33 60.7544 33 55C33 44.0865 40.9466 35.029 51.3692 33.2982L49.2647 19.0912C49.0781 17.8344 47.5513 17.314 46.6366 18.196Z" fill="#22E0DA"/>
<path fill-rule="evenodd" clip-rule="evenodd" d="M75 55C75 66.0457 66.0457 75 55 75C43.9543 75 35 66.0457 35 55C35 43.9543 43.9543 35 55 35C66.0457 35 75 43.9543 75 55ZM51.5212 45.0771C52.5856 43.0024 53.9939 41.8048 55.464 41.2404C56.9413 40.6732 58.5541 40.7174 60.0684 41.2573C63.12 42.3454 65.6486 45.3991 65.6486 49.1602C65.6486 49.5848 65.9679 49.9415 66.3899 49.9884C68.1286 50.1816 69.2266 50.7913 69.8587 51.5199C70.3497 52.086 70.6056 52.7759 70.6336 53.5245C71.2161 53.6671 71.7685 53.8863 72.2796 54.1707C72.4012 52.835 72.0473 51.4995 71.1177 50.4278C70.2615 49.4408 68.9756 48.7441 67.2892 48.4363C66.9867 44.2464 64.0858 40.9203 60.6281 39.6874C58.7894 39.0318 56.7628 38.9564 54.8666 39.6844C53.2011 40.3239 51.6916 41.5619 50.5193 43.4618C48.9297 42.5427 46.885 42.7185 45.3442 43.4694C44.4069 43.9261 43.5672 44.6308 43.0586 45.5479C42.6659 46.2558 42.4841 47.0692 42.5939 47.9365C39.7324 48.9373 38.3333 51.6456 38.3333 54.2613C38.3333 57.1136 39.997 60.076 43.4065 60.8145C43.4644 60.827 43.5236 60.8333 43.5829 60.8333H51.25V59.1667H43.6754C41.2516 58.6002 40 56.4845 40 54.2613C40 52.0125 41.2805 49.8738 43.7593 49.337C43.9917 49.2866 44.1916 49.1394 44.3085 48.9322C44.4255 48.7251 44.4483 48.4779 44.3714 48.2529C44.1229 47.5264 44.2178 46.8941 44.5161 46.3563C44.8253 45.7988 45.376 45.3079 46.0743 44.9676C47.515 44.2655 49.2259 44.346 50.1981 45.2935C50.3875 45.4781 50.6532 45.5618 50.9142 45.5191C51.1752 45.4764 51.4005 45.3124 51.5212 45.0771ZM54.5183 69.1094L71.7877 60.4747C72.1789 60.2791 72.1789 59.7209 71.7877 59.5253L54.5183 50.8906C54.1391 50.701 53.7017 51.0105 53.7543 51.4311L54.6394 58.5117C54.6705 58.7605 54.8715 58.9537 55.1214 58.9747L63.0326 60L55.1214 61.0253C54.8715 61.0464 54.6705 61.2395 54.6394 61.4883L53.7543 68.5689C53.7017 68.9895 54.1391 69.299 54.5183 69.1094Z" fill="#0B5AB5"/>
</g>
<defs>
<clipPath id="clip0">
<rect width="72" height="72" fill="white" transform="translate(3 3)"/>
</clipPath>
</defs>
</svg>
